<?xml version="1.0" encoding="UTF-8" standalone="no"?>
<svg
   xmlns:dc="http://purl.org/dc/elements/1.1/"
   xmlns:cc="http://creativecommons.org/ns#"
   xmlns:rdf="http://www.w3.org/1999/02/22-rdf-syntax-ns#"
   xmlns:svg="http://www.w3.org/2000/svg"
   xmlns="http://www.w3.org/2000/svg"
   xmlns:sodipodi="http://sodipodi.sourceforge.net/DTD/sodipodi-0.dtd"
   xmlns:inkscape="http://www.inkscape.org/namespaces/inkscape"
   version="1.1"
   id="svg2"
   width="84.239998"
   height="62.759998"
   viewBox="0 0 84.239998 62.759998"
   sodipodi:docname="Logo.svg"
   inkscape:version="1.0.2-2 (e86c870879, 2021-01-15)">
  <metadata
     id="metadata8">
    <rdf:RDF>
      <cc:Work
         rdf:about="">
        <dc:format>image/svg+xml</dc:format>
        <dc:type
           rdf:resource="http://purl.org/dc/dcmitype/StillImage" />
        <dc:title></dc:title>
      </cc:Work>
    </rdf:RDF>
  </metadata>
  <defs
     id="defs6" />
  <sodipodi:namedview
     pagecolor="#ffffff"
     bordercolor="#666666"
     borderopacity="1"
     objecttolerance="10"
     gridtolerance="10"
     guidetolerance="10"
     inkscape:pageopacity="0"
     inkscape:pageshadow="2"
     inkscape:window-width="1920"
     inkscape:window-height="1051"
     id="namedview4"
     showgrid="false"
     inkscape:zoom="9.9148181"
     inkscape:cx="33.546978"
     inkscape:cy="37.55295"
     inkscape:window-x="-9"
     inkscape:window-y="-9"
     inkscape:window-maximized="1"
     inkscape:current-layer="g10" />
  <g
     inkscape:groupmode="layer"
     inkscape:label="Image"
     id="g10">
    <path
       style="fill:#020302;stroke:none;stroke-width:0.12"
       d="m 3.6957045,62.703185 c -0.0012,-1.79868 -0.71514,-3.48876 -0.829164,-5.28 -0.108276,-1.701 0.532332,-3.6246 1.44,-5.04 2.24304,-3.49788 6.2163715,-5.227199 9.8291635,-6.933719 6.428159,-3.03636 13.529879,-6.6708 15.066119,-14.30628 1.68996,-8.39976 -5.8326,-14.08116 -8.53512,-21.2399989 C 20.265184,8.8396867 19.735624,7.5835867 19.800904,6.4231867 19.953304,3.7117989 22.938783,1.748995 25.415703,1.383187 v -0.24 c -3.58836,0.00238 -7.746839,2.1149159 -7.534919,6.2399997 0.41964,8.1684003 9.053759,14.8408793 6.796199,23.3999993 -0.969,3.6738 -4.473959,5.98764 -7.541279,7.824 -5.34312,3.19884 -11.5263475,5.7108 -15.1876795,11.015999 -2.11988998,3.07164 -1.84265098,7.0836 -0.262968,10.32 0.499872,1.02408 0.85836,2.30976 2.010648,2.76 M 28.415703,7.5031867 V 20.823186 h 1.56 c 0,-1.89648 -0.07296,-3.4602 1.32,-4.919999 l 2.2368,3.719999 1.03788,1.12764 1.64532,0.07236 c -0.84672,-1.52664 -1.92576,-2.916 -2.77656,-4.44 -0.213,-0.381479 -0.83976,-1.181039 -0.74268,-1.629119 0.26724,-1.23372 2.31324,-2.50026 3.03924,-3.53088 -2.78964,0 -3.84432,2.06304 -5.76,3.72 V 7.5031867 h -1.56 m 9.24,1.32 v 1.5600003 h 1.56 V 8.8231867 h -1.56 m 5.52,3.4800003 v -1.08 h -1.32 v 9.599999 h 1.56 c 0,-2.1606 -0.66504,-4.936679 0.30516,-6.959879 0.75936,-1.583508 2.8776,-1.997712 3.93648,-0.47964 0.50496,0.72384 0.43836,1.6812 0.43836,2.51952 v 4.919999 h 1.56 c 0,-3.1548 1.46736,-11.0439109 -4.08,-9.691295 -0.8898,0.21696 -1.596,0.773112 -2.4,1.171296 m -5.4,-1.08 v 9.599999 h 1.56 l -0.12,-9.719999 -1.44,0.12 m -32.8799985,1.32 c 0.01835,0.86148 1.032996,2.10876 0.762408,2.86404 -0.204336,0.57024 -1.860228,0.36792 -1.66278,0.956039 0.212388,0.63264 1.39122,0.43716 1.822224,0.8934 0.427752,0.45276 0.199296,1.0974 0.325464,1.64652 0.239544,1.04268 1.129764,1.33236 0.912684,2.52 h 0.12 c 1.453716,-2.05368 -0.08264,-3.57264 -0.668616,-5.639999 -0.339024,-1.19616 -0.386112,-2.59056 -1.611384,-3.24 m 15.4799995,8.159999 c -1.25508,-1.62612 -4.05396,-2.27568 -6,-2.48532 -0.49332,-0.05304 -2.36304,0.0114 -2.27556,0.804 0.08052,0.72948 1.30404,0.59904 1.79556,0.60144 2.24316,0.01092 4.29264,0.8892 6.48,1.07988 m -15.9599995,-1.92 c 0.155808,0.85956 0.71268,1.30776 1.56,1.44 0.102624,-0.92304 -0.758628,-1.30152 -1.56,-1.44 m 9.1199995,2.4 c 0.40272,0.78768 1.31232,0.85548 1.88664,1.46556 0.702,0.74544 0.56496,2.6562 2.07036,1.75968 0.2208,-0.13152 0.40824,-0.29976 0.603,-0.46524 l 0.24,1.56 2.999999,-0.36 c -1.344959,-3.1164 -4.735319,-3.96 -7.799999,-3.96 m 27.119999,6.96 v 1.8 h 1.68 v -1.8 h -1.68 m -30.8399988,1.2 c -1.2136317,1.58832 -2.4014757,1.07628 -4.0799997,0.6 0.43716,0.93684 1.568076,1.70628 2.64,1.62 0.9997557,-0.08052 1.8309715,-1.27944 1.4399997,-2.22 m 43.1999988,9.24 c -1.89756,-0.4518 -1.74744,0.95784 -3.24,1.54224 -1.98312,0.7764 -3.61008,-1.3962 -3.84,-3.10224 h 7.08 c 0,-1.56468 -0.10068,-3.09276 -1.2528,-4.28532 -2.88348,-2.98476 -7.13364,-0.08592 -7.48668,3.44532 -0.1536,1.53612 0.2676,3.29976 1.44036,4.36572 2.41224,2.19276 6.29124,0.9942 7.29912,-1.96572 m 29.999997,-0.12 c -0.43116,-0.0089 -1.01124,-0.20304 -1.41912,-0.04584 -0.534,0.2058 -0.85896,0.909 -1.34136,1.23324 -1.40136,0.942 -3.12516,0.40536 -3.90984,-1.0674 -0.25644,-0.4812 -0.3102,-1.032 -0.40968,-1.56 1.15992,0 2.32008,-0.0055 3.48,1.2e-4 0.88788,0.0042 2.80548,0.55956 3.52764,-0.1212 0.93828,-0.88464 -0.54348,-3.6522 -1.25244,-4.26312 -3.11292,-2.68296 -7.18872,0.10452 -7.4244,3.7842 -0.0661,1.03296 0.19548,2.21664 0.69768,3.12 1.70808,3.07188 7.48644,2.68968 8.05152,-1.08 m -43.799997,-0.24 c -0.36672,-0.11136 -1.01712,-0.32364 -1.38972,-0.16284 -0.34596,0.14928 -0.43788,0.71232 -0.63264,1.00272 -0.55536,0.82776 -1.52796,1.37964 -2.53764,1.15284 -3.1242,-0.7014 -2.68704,-6.24276 0,-7.20516 0.86904,-0.31128 1.67004,0.11664 2.241,0.77424 0.37692,0.43404 0.77808,1.1724 1.4724,0.99324 0.89208,-0.23004 0.48696,-1.45824 0.07932,-1.94388 -1.38492,-1.64964 -4.72932,-1.61724 -6.18156,-0.126 -1.69836,1.74408 -1.92624,5.49912 -0.37992,7.41444 2.34744,2.9076 6.42192,1.29492 7.32876,-1.8996 m 17.399997,-5.16 v -1.32 h -1.439997 v 9.72 H 56.7357 c -0.006,-2.18412 -0.72984,-4.92264 0.339,-6.96 0.7596,-1.44792 2.66748,-2.1594 3.81372,-0.7182 0.59028,0.74232 0.52728,1.7448 0.52728,2.6382 v 5.04 h 1.56 c 0,-2.44224 0.5664,-5.71596 -0.25296,-8.04 -0.6072,-1.72236 -2.85672,-2.1756 -4.42704,-1.61412 -0.70584,0.25224 -1.13256,0.78108 -1.68,1.25412 m 16.68,5.04 -1.56,-0.12 c -0.24972,1.66008 -2.04156,2.97672 -3.59988,1.93752 -0.999,-0.66624 -1.41,-1.8612 -1.43832,-3.01752 -0.0434,-1.76928 1.00824,-4.6866 3.3582,-3.82404 0.84552,0.31044 1.02432,1.2642 1.7268,1.59168 0.6186,0.28836 1.49676,-0.14568 1.30956,-0.88776 -0.5424,-2.14992 -3.89748,-2.66472 -5.55636,-1.7364 -2.01312,1.12644 -2.8248,3.62988 -2.48448,5.81652 0.22392,1.4382 1.11744,2.84832 2.48448,3.4242 2.37924,1.00236 5.6328,-0.4074 5.76,-3.1842 m -32.447637,-6.23664 c -0.43788,0.3468 -0.19236,1.76844 -0.19236,2.27664 v 4.68 c 0,0.68748 -0.15828,1.6008 0.03816,2.26224 0.13944,0.4698 1.10544,0.52692 1.44948,0.2544 0.43788,-0.3468 0.19236,-1.76844 0.19236,-2.27664 v -4.68 c 0,-0.68748 0.15828,-1.6008 -0.03816,-2.26224 -0.13944,-0.4698 -1.10544,-0.52692 -1.44948,-0.2544 m 10.60764,3.83664 h -5.52 c 0.80988,-3.4992 5.00844,-3.79584 5.52,0 m 29.999997,0 h -5.52 c 0.25596,-0.987 0.51276,-1.94304 1.44012,-2.5206 1.86816,-1.16376 3.91368,0.6168 4.07988,2.5206 m -77.6399955,-1.44 c 0.806064,1.8324 3.37956,2.45004 5.1599997,2.89524 0.662292,0.16548 1.8279598,0.69072 2.1599998,-0.13524 l -4.0799995,-2.31792 -3.24,-0.44208 m 0.24,2.28 c 0.524364,1.11504 1.792644,1.37148 2.88,1.68 -0.504996,-1.05984 -1.83318,-1.38288 -2.88,-1.68 z"
       id="path14" />
  </g>
</svg>
